<svg class="lds-gear" width="100%" height="100%" xmlns="http://www.w3.org/2000/svg" xmlns:xlink="http://www.w3.org/1999/xlink" viewBox="0 0 100 100" preserveAspectRatio="xMidYMid"><g transform="translate(50 50)">
<g transform="rotate(62)">
<animateTransform attributeName="transform" type="rotate" values="0;360" keyTimes="0;1" dur="9s" repeatCount="indefinite"></animateTransform><path d="M36.66060555964672 -10 L46.66060555964672 -10 L46.66060555964672 10 L36.66060555964672 10 A38 38 0 0 1 32.99403060549692 18.851894981765962 L32.99403060549692 18.851894981765962 L40.06509841736239 25.922962793631438 L25.92296279363144 40.06509841736239 L18.851894981765966 32.99403060549692 A38 38 0 0 1 10.000000000000004 36.66060555964672 L10.000000000000004 36.66060555964672 L10.000000000000004 46.66060555964672 L-10 46.66060555964672 L-10 36.66060555964672 A38 38 0 0 1 -18.85189498176597 32.99403060549692 L-18.85189498176597 32.99403060549692 L-25.922962793631445 40.06509841736239 L-40.065098417362385 25.92296279363145 L-32.99403060549691 18.851894981765973 A38 38 0 0 1 -36.66060555964672 9.999999999999996 L-36.66060555964672 9.999999999999996 L-46.66060555964672 9.999999999999998 L-46.660605559646726 -9.999999999999988 L-36.660605559646726 -9.99999999999999 A38 38 0 0 1 -32.99403060549692 -18.851894981765966 L-32.99403060549692 -18.851894981765966 L-40.06509841736239 -25.92296279363144 L-25.922962793631452 -40.065098417362385 L-18.851894981765977 -32.99403060549691 A38 38 0 0 1 -10 -36.66060555964672 L-10 -36.66060555964672 L-10.000000000000002 -46.66060555964672 L9.999999999999986 -46.660605559646726 L9.999999999999988 -36.660605559646726 A38 38 0 0 1 18.851894981765962 -32.99403060549692 L18.851894981765962 -32.99403060549692 L25.922962793631434 -40.06509841736239 L40.065098417362385 -25.92296279363146 L32.99403060549691 -18.85189498176598 A38 38 0 0 1 36.66060555964672 -10.000000000000002 M0 -20A20 20 0 1 0 0 20 A20 20 0 1 0 0 -20" fill="#fff"></path></g></g></svg>
